# xmcd CD database file
#
# Track frame offsets:
#	150
#	17603
#	29821
#	48691
#	63016
#	80030
#	90893
#	109909
#	126404
#	137281
#	158537
#	174680
#	193581
#	211434
#	222318
#	235911
#
# Disc length: 3352 seconds
#
# Revision: 1
# Processed by: cddbd v1.5.2PL0 Copyright (c) Steve Scherf et al.
# Submitted via: CDex 1.50
#
DISCID=dd0d1610
DTITLE=Rag Mama Rag - Shake it one more time
DYEAR=1900
DGENRE=Blues
TTITLE0=Traveling hobo's blues
TTITLE1=You can't get the stuff no more
TTITLE2=In the Pines
TTITLE3=It hurts me too
TTITLE4=Let's get drunk again
TTITLE5=Shake it one more time
TTITLE6=Sitting on the top of the world
TTITLE7=Waiting for my girl to call
TTITLE8=She moved through the fair
TTITLE9=Can't make somebody love you
TTITLE10=Canicule blues
TTITLE11=Your cheatin' heart
TTITLE12=Swim against the tide
TTITLE13=Twelve gates to the city
TTITLE14=Beggar's waltz
TTITLE15=Shake, shake mama (cherry ball)
EXTD=
EXTT0=
EXTT1=
EXTT2=
EXTT3=
EXTT4=
EXTT5=
EXTT6=
EXTT7=
EXTT8=
EXTT9=
EXTT10=
EXTT11=
EXTT12=
EXTT13=
EXTT14=
EXTT15=
PLAYORDER=
